<svg id="Calque_1" data-name="Calque 1" xmlns="http://www.w3.org/2000/svg" viewBox="0 0 149.15 149.15"><defs><style>.cls-1{fill:#fff;}.cls-2{fill:#1d1d1b;}.cls-3{fill:#814594;}.cls-4{fill:#b9ce1e;}.cls-5{fill:#e52713;}</style></defs><title>pixelmaps</title><path class="cls-1" d="M0,149.15V0H149.15V149.15ZM116.32,43.31c0-29.6-28.67-49.3-56.08-38.77C37.52,13.27,27.57,39.61,38.65,62.39A181.42,181.42,0,0,0,49.44,81.25c12.23,19,20.41,39.37,22.42,62,.19,2.13.86,3.75,3.45,3.75,2.79,0,3.35-1.91,3.53-4a118.72,118.72,0,0,1,13-45.35c4.87-9.32,10.66-18.15,15.88-27.29C112.58,61.9,116.67,53.16,116.32,43.31Z"/><path d="M116.32,43.31c.35,9.85-3.74,18.59-8.56,27-5.22,9.14-11,18-15.88,27.29a118.72,118.72,0,0,0-13,45.35c-.18,2.12-.74,4-3.53,4-2.59,0-3.26-1.62-3.45-3.75-2-22.65-10.19-43-22.42-62A181.42,181.42,0,0,1,38.65,62.39C27.57,39.61,37.52,13.27,60.24,4.54,87.65-6,116.32,13.71,116.32,43.31ZM75.12,60.54c10.36.73,18-8.3,18-17.14,0-9.53-7.44-17.91-16-18-11.53-.15-19.21,6.71-19.3,17.24S64.81,60.46,75.12,60.54Z"/><path class="cls-1" d="M75.12,60.54c-10.31-.08-17.44-7.44-17.36-17.93s7.77-17.39,19.3-17.24c8.58.12,16,8.5,16,18C93.1,52.24,85.48,61.27,75.12,60.54Z"/><rect class="cls-1" x="52.81" y="52.12" height="0.67"/><rect class="cls-1" x="42.77" y="59.15" height="0.67"/><path class="cls-2" d="M74.86,6.76a37.16,37.16,0,0,1,0,74.31"/><path class="cls-2" d="M74.86,81.07a37.16,37.16,0,1,1,0-74.31"/><g id="texte"><path class="cls-1" d="M45.36,44.06a.66.66,0,0,1,.67-.67h2.31c1.77,0,2.88,1,2.88,2.53v0c0,1.69-1.36,2.58-3,2.58h-1.5v1.82A.65.65,0,0,1,46,51a.66.66,0,0,1-.67-.66Zm2.88,3.26c1,0,1.63-.56,1.63-1.35v0c0-.89-.64-1.35-1.63-1.35H46.69v2.72Z"/><path class="cls-1" d="M52.65,44A.67.67,0,0,1,54,44v6.34a.67.67,0,0,1-1.33,0Z"/><path class="cls-1" d="M55.8,49.89l2.25-2.78-2.12-2.63a.83.83,0,0,1-.21-.5.64.64,0,0,1,.66-.64.71.71,0,0,1,.61.32l1.91,2.52,1.89-2.48a.75.75,0,0,1,.65-.36.61.61,0,0,1,.6.6.76.76,0,0,1-.2.51l-2.12,2.63,2.22,2.78a.81.81,0,0,1,.21.5.64.64,0,0,1-.66.64.66.66,0,0,1-.6-.32l-2-2.65-2,2.61a.78.78,0,0,1-.65.36.6.6,0,0,1-.6-.61A.8.8,0,0,1,55.8,49.89Z"/><path class="cls-1" d="M63.7,50.28V44.06a.66.66,0,0,1,.67-.67h4.39a.6.6,0,1,1,0,1.19H65v2h3.25a.6.6,0,0,1,.59.61.59.59,0,0,1-.59.58H65v2h3.79a.6.6,0,0,1,.59.6.59.59,0,0,1-.59.59H64.37A.66.66,0,0,1,63.7,50.28Z"/><path class="cls-1" d="M70.93,44a.67.67,0,0,1,1.33,0v5.74h3.42a.61.61,0,1,1,0,1.21H71.6a.66.66,0,0,1-.67-.67Z"/><path class="cls-1" d="M85.53,50.92l-1.12-1.17a3.3,3.3,0,0,1-2.56,1.31A2.15,2.15,0,0,1,79.53,49v0c0-1,.72-1.76,2-2.21A2.47,2.47,0,0,1,80.64,45v0a1.76,1.76,0,0,1,1.89-1.72,1.68,1.68,0,0,1,1.74,1.64v0c0,.94-.7,1.56-1.85,2l2,2a9.3,9.3,0,0,0,.91-1.66.27.27,0,0,1,.52.1.25.25,0,0,1,0,.14,9.54,9.54,0,0,1-1,1.8L86,50.51a.33.33,0,0,1,.13.26.28.28,0,0,1-.29.28A.38.38,0,0,1,85.53,50.92Zm-1.47-1.54-2.24-2.31c-1.2.41-1.73,1.12-1.73,1.85v0a1.66,1.66,0,0,0,1.77,1.63A2.9,2.9,0,0,0,84.06,49.38ZM83.71,45v0a1.17,1.17,0,0,0-1.2-1.18A1.23,1.23,0,0,0,81.21,45v0c0,.47.2.84.87,1.55C83.16,46.19,83.71,45.66,83.71,45Z"/><path class="cls-1" d="M89.52,47.19v0a3.82,3.82,0,0,1,3.89-3.91,4,4,0,0,1,2.6.85.67.67,0,0,1,.25.53.64.64,0,0,1-.65.65.59.59,0,0,1-.4-.13,2.75,2.75,0,0,0-1.81-.68,2.55,2.55,0,0,0-2.49,2.67v0a2.55,2.55,0,0,0,2.49,2.68,2.69,2.69,0,0,0,1.89-.73.65.65,0,0,1,.4-.15.63.63,0,0,1,.63.62.62.62,0,0,1-.22.47,3.94,3.94,0,0,1-6.58-2.87Z"/><path class="cls-1" d="M97.48,47.19v0a4,4,0,0,1,7.91,0v0a3.88,3.88,0,0,1-4,3.91A3.84,3.84,0,0,1,97.48,47.19Zm6.51,0v0a2.59,2.59,0,0,0-2.57-2.69,2.56,2.56,0,0,0-2.55,2.67v0a2.58,2.58,0,0,0,2.57,2.68A2.55,2.55,0,0,0,104,47.19Z"/></g><circle class="cls-3" cx="63.37" cy="31.7" r="3.81"/><circle class="cls-4" cx="74.91" cy="31.7" r="3.81"/><circle class="cls-5" cx="86.27" cy="31.7" r="3.81"/></svg>